<?xml version="1.0" encoding="iso-8859-1"?>
<!-- Uploaded to: SVG Repo, www.svgrepo.com, Generator: SVG Repo Mixer Tools -->
<!DOCTYPE svg PUBLIC "-//W3C//DTD SVG 1.1//EN" "http://www.w3.org/Graphics/SVG/1.1/DTD/svg11.dtd">
<svg fill="#000000" height="800px" width="800px" version="1.1" id="Capa_1" xmlns="http://www.w3.org/2000/svg" xmlns:xlink="http://www.w3.org/1999/xlink" 
	 viewBox="0 0 299.104 299.104" xml:space="preserve">
<g>
	<path d="M293.579,43.535l-74.92-40.872c-4.355-2.375-9.706-0.675-11.893,3.778c0,0-23.684,48.253-57.194,48.253
		c-33.51,0-57.194-48.253-57.194-48.253c-2.186-4.453-7.539-6.157-11.896-3.786L5.35,43.543c-4.357,2.371-6.488,8.108-4.737,12.749
		l16.638,44.064c1.752,4.641,6.822,6.636,11.267,4.433L49.87,94.143c4.444-2.203,7.946,0.054,7.946,5.015v127.964
		c0,4.961,3.14,11.749,6.812,15.084l54.064,49.148c3.672,3.336,10.803,6.166,15.764,6.166h29.133c4.961,0,12.046-2.805,15.744-6.111
		l54.879-49.207c3.699-3.305,6.604-10.118,6.604-15.079V107.237c0-4.96,4.058-8.037,8.873-6.838l22.489,5.592
		c4.814,1.199,10.089-1.661,11.686-6.358l14.726-43.241C300.188,51.696,297.934,45.91,293.579,43.535z M166.838,116.935
		c4.429,0,8.018,3.59,8.018,8.017c0,4.429-3.589,8.018-8.018,8.018c-4.427,0-8.017-3.589-8.017-8.018
		C158.822,120.524,162.412,116.935,166.838,116.935z M133.768,116.935c4.429,0,8.018,3.59,8.018,8.017
		c0,4.429-3.589,8.018-8.018,8.018c-4.428,0-8.017-3.589-8.017-8.018C125.751,120.524,129.34,116.935,133.768,116.935z
		 M196.169,157.583c-6.186,17.766-22.241,30.656-40.903,32.841c-1.901,0.223-3.802,0.333-5.69,0.333
		c-16.889,0-32.954-8.727-42.032-23.224c-1.958-3.125-3.563-6.472-4.775-9.949c-1.457-4.181,0.752-8.751,4.934-10.208
		c4.181-1.461,8.751,0.752,10.208,4.933c0.817,2.345,1.901,4.605,3.223,6.714c6.824,10.897,19.491,16.961,32.269,15.477
		c12.602-1.476,23.446-10.186,27.627-22.189c1.455-4.181,6.023-6.396,10.207-4.934C195.417,148.831,197.626,153.401,196.169,157.583
		z"/>
</g>
</svg>