<?xml version="1.0" encoding="iso-8859-1"?>
<!-- Uploaded to: SVG Repo, www.svgrepo.com, Generator: SVG Repo Mixer Tools -->
<!DOCTYPE svg PUBLIC "-//W3C//DTD SVG 1.1//EN" "http://www.w3.org/Graphics/SVG/1.1/DTD/svg11.dtd">
<svg fill="#000000" height="800px" width="800px" version="1.1" id="Capa_1" xmlns="http://www.w3.org/2000/svg" xmlns:xlink="http://www.w3.org/1999/xlink" 
	 viewBox="0 0 453.469 453.469" xml:space="preserve">
<g>
	<path d="M323.125,195.717H314.1L328.852,9.945c0.105-1.322-0.319-2.631-1.18-3.641s-2.087-1.635-3.408-1.74l-57.235-4.548
		c-2.756-0.221-5.162,1.835-5.381,4.588l-15.19,191.113h-3.547V64.999c0-0.573-0.099-1.141-0.291-1.68l-15.202-42.605
		c-0.71-1.991-2.595-3.32-4.708-3.32h0c-2.113,0-3.998,1.329-4.709,3.319l-15.212,42.605c-0.192,0.54-0.291,1.108-0.291,1.681
		v130.719h-6.367L181.857,27.643c-0.454-5.379-2.977-10.259-7.103-13.741c-4.125-3.481-9.363-5.144-14.741-4.694
		c-10.369,0.882-18.491,9.721-18.491,20.122c0,0.684,0.023,1.25,0.07,1.73l1.934,22.751l-2.695,0.229
		c-8.81,0.748-15.369,8.523-14.621,17.333l7.878,92.791c0.251,2.958-1.951,5.568-4.909,5.82c-2.751,0.233-4.792,2.654-4.559,5.405
		c0.221,2.607,2.406,4.577,4.976,4.577c0.142,0,0.285-0.006,0.429-0.019c4.094-0.348,7.808-2.269,10.458-5.41
		c2.649-3.141,3.917-7.126,3.569-11.22l-7.878-92.791c-0.281-3.315,2.188-6.242,5.503-6.524l2.695-0.229l11.194,131.942h-9.526
		c-1.381,0-2.701,0.571-3.646,1.579s-1.432,2.36-1.344,3.739l14.785,232.403c0.715,11.232,10.091,20.031,21.346,20.031h114.803
		c11.255,0,20.631-8.799,21.346-20.031l14.785-232.403c0.087-1.378-0.399-2.731-1.344-3.739
		C325.826,196.289,324.505,195.717,323.125,195.717z M271.22,10.381l47.267,3.756L317.672,24.4l-18.554-1.474
		c-2.757-0.222-5.161,1.835-5.38,4.588s1.836,5.162,4.589,5.38l18.554,1.474l-0.761,9.578l-9.247-0.734
		c-2.75-0.215-5.161,1.836-5.38,4.588c-0.219,2.753,1.836,5.162,4.589,5.38l9.247,0.734l-0.76,9.578l-9.248-0.734
		c-2.753-0.216-5.161,1.836-5.38,4.588c-0.219,2.753,1.836,5.162,4.589,5.38l9.247,0.734l-0.761,9.579l-9.247-0.735
		c-2.758-0.217-5.162,1.835-5.381,4.588s1.836,5.162,4.588,5.38l9.249,0.735l-0.761,9.578l-18.557-1.474
		c-2.752-0.217-5.161,1.835-5.38,4.588s1.836,5.162,4.589,5.38l18.556,1.474l-0.76,9.579l-9.25-0.735
		c-2.755-0.219-5.161,1.836-5.38,4.588c-0.219,2.753,1.836,5.162,4.589,5.38l9.249,0.734l-0.761,9.579l-9.25-0.735
		c-2.759-0.22-5.161,1.836-5.38,4.588c-0.219,2.753,1.836,5.162,4.589,5.38l9.25,0.735l-0.76,9.578l-9.25-0.735
		c-2.753-0.221-5.162,1.835-5.381,4.588s1.836,5.162,4.588,5.38l9.251,0.735l-0.76,9.579l-18.56-1.475
		c-2.756-0.222-5.161,1.835-5.38,4.588s1.836,5.162,4.589,5.38l18.559,1.474l-0.395,4.973H256.49L271.22,10.381z M222.707,37.267
		l8.112,22.733H214.59L222.707,37.267z M212.496,70.001h20.415v125.717h-20.415V70.001z M160.857,19.173
		c2.715-0.229,5.363,0.613,7.448,2.372c2.084,1.759,3.358,4.223,3.587,6.94l0.702,8.27l-20.337,1.727l-0.706-8.316
		c-0.026-0.278-0.029-0.563-0.029-0.835C151.522,24.08,155.624,19.618,160.857,19.173z M153.103,48.445l20.338-1.727l0.384,4.521
		l-20.338,1.727L153.103,48.445z M154.332,62.93l20.338-1.727l11.424,134.514h-20.493L154.332,62.93z M303.349,432.803
		c-0.38,5.981-5.372,10.666-11.365,10.666H177.181c-5.993,0-10.985-4.685-11.366-10.666l-14.447-227.086h166.429L303.349,432.803z"
		/>
	<path d="M291.934,429.322c0.108,0.007,0.216,0.01,0.322,0.01c2.616,0,4.816-2.035,4.985-4.683l2.973-46.731
		c0.175-2.756-1.917-5.132-4.673-5.307c-2.773-0.17-5.132,1.917-5.308,4.672l-2.973,46.731
		C287.087,426.771,289.178,429.147,291.934,429.322z"/>
	<path d="M296.219,361.957c0.108,0.007,0.216,0.01,0.322,0.01c2.616,0,4.816-2.035,4.985-4.683l6.806-106.972
		c0.175-2.756-1.917-5.132-4.673-5.307c-2.774-0.179-5.132,1.917-5.308,4.672l-6.806,106.972
		C291.372,359.406,293.463,361.782,296.219,361.957z"/>
	<path d="M304.311,234.774c0.108,0.007,0.216,0.01,0.322,0.01c2.616,0,4.816-2.035,4.985-4.683l0.792-12.453
		c0.175-2.756-1.917-5.132-4.673-5.307c-2.779-0.175-5.132,1.917-5.308,4.672l-0.792,12.453
		C299.463,232.223,301.555,234.599,304.311,234.774z"/>
</g>
</svg>