<?xml version="1.0" encoding="iso-8859-1"?>
<!-- Uploaded to: SVG Repo, www.svgrepo.com, Generator: SVG Repo Mixer Tools -->
<!DOCTYPE svg PUBLIC "-//W3C//DTD SVG 1.1//EN" "http://www.w3.org/Graphics/SVG/1.1/DTD/svg11.dtd">
<svg fill="#000000" height="800px" width="800px" version="1.1" id="Capa_1" xmlns="http://www.w3.org/2000/svg" xmlns:xlink="http://www.w3.org/1999/xlink" 
	 viewBox="0 0 457.917 457.917" xml:space="preserve">
<path d="M379.231,428.873l-53.42-179.81c-1.874-6.308-4.892-16.632-6.726-23.014l-0.133-0.46
	c-1.858-6.467-5.693-16.681-8.549-22.769l-17.974-38.325c-2.571-5.482-3.716-15.124-2.499-21.056l11.257-54.894l1.329,42.738
	c0.213,6.828,2.24,17.622,4.521,24.063l29.391,82.995c2.555,7.211,10.733,12.816,18.445,12.542l11.598-0.42
	c3.96-0.143,7.317-1.863,9.212-4.718c1.895-2.855,2.175-6.617,0.769-10.321l-31.081-81.892c-2.237-5.895-4.494-16.188-4.929-22.476
	l-6.146-88.883c-0.511-7.389-5.699-16.455-11.813-20.64l-28.229-19.32c-2.142-1.466-4.231-2.209-6.211-2.209
	c-1.902,0-3.584,0.695-4.862,2.011c-1.661,1.709-2.489,4.319-2.397,7.55c0.007,0.234,0.496,23.576-14.535,39.043
	c-8.867,9.124-21.413,13.75-37.291,13.75c-17.341,0-30.686-4.905-39.665-14.578c-14.262-15.366-12.76-37.903-12.743-38.126
	c0.253-3.284-0.459-5.933-2.058-7.659C173.283,0.69,171.663,0,169.808,0c-1.933,0-4.001,0.745-6.146,2.213l-28.228,19.32
	c-6.113,4.184-11.302,13.25-11.813,20.64l-6.146,88.882c-0.436,6.292-2.693,16.584-4.929,22.476l-31.082,81.892
	c-1.406,3.704-1.125,7.466,0.77,10.321c1.896,2.854,5.253,4.574,9.211,4.717l11.599,0.42c7.694,0.273,15.892-5.331,18.444-12.542
	l29.391-82.994c2.281-6.441,4.309-17.235,4.521-24.063l1.329-42.739l11.258,54.895c1.217,5.932,0.072,15.574-2.499,21.056
	l-17.975,38.325c-2.855,6.088-6.692,16.301-8.553,22.767l-0.386,1.34c-1.821,6.328-4.84,16.653-6.729,23.015L78.686,428.873
	c-1.146,3.856-0.604,7.675,1.486,10.477c2.04,2.733,5.262,4.239,9.073,4.239c5.927,0,15.481,2.52,20.865,5.501l11.04,6.115
	c3.156,1.749,7.314,2.711,11.708,2.711s8.552-0.963,11.708-2.711l11.039-6.115c2.393-1.325,5.777-2.085,9.286-2.085
	s6.894,0.76,9.286,2.085l11.039,6.115c3.156,1.749,7.314,2.711,11.708,2.711s8.552-0.963,11.709-2.711l11.038-6.115
	c2.393-1.325,5.777-2.085,9.286-2.085s6.894,0.76,9.285,2.085l11.04,6.115c3.156,1.749,7.314,2.711,11.708,2.711
	s8.552-0.963,11.708-2.711l11.039-6.115c2.393-1.325,5.777-2.085,9.286-2.085s6.894,0.76,9.286,2.085l11.039,6.115
	c3.156,1.749,7.314,2.711,11.708,2.711s8.552-0.963,11.709-2.711l11.038-6.115c5.385-2.982,14.939-5.501,20.866-5.501
	c3.812,0,7.033-1.505,9.073-4.239C379.834,436.548,380.376,432.729,379.231,428.873z"/>
</svg>